<?xml version="1.0" encoding="UTF-8" standalone="no"?>
<svg
   xmlns:dc="http://purl.org/dc/elements/1.1/"
   xmlns:cc="http://creativecommons.org/ns#"
   xmlns:rdf="http://www.w3.org/1999/02/22-rdf-syntax-ns#"
   xmlns:svg="http://www.w3.org/2000/svg"
   xmlns="http://www.w3.org/2000/svg"
   xmlns:sodipodi="http://sodipodi.sourceforge.net/DTD/sodipodi-0.dtd"
   xmlns:inkscape="http://www.inkscape.org/namespaces/inkscape"
   xml:lang="en-US"
   version="1.0"
   viewBox="0 0 899.17773 460.55444"
   width="899.17773"
   height="460.55444"
   id="svg12"
   sodipodi:docname="maze.svg"
   inkscape:version="0.92.3 (2405546, 2018-03-11)">
  <metadata
     id="metadata18">
    <rdf:RDF>
      <cc:Work
         rdf:about="">
        <dc:format>image/svg+xml</dc:format>
        <dc:type
           rdf:resource="http://purl.org/dc/dcmitype/StillImage" />
        <dc:title></dc:title>
      </cc:Work>
    </rdf:RDF>
  </metadata>
  <defs
     id="defs16" />
  <sodipodi:namedview
     pagecolor="#ffffff"
     bordercolor="#666666"
     borderopacity="1"
     objecttolerance="10"
     gridtolerance="10"
     guidetolerance="10"
     inkscape:pageopacity="0"
     inkscape:pageshadow="2"
     inkscape:window-width="1920"
     inkscape:window-height="1017"
     id="namedview14"
     showgrid="false"
     fit-margin-top="0"
     fit-margin-left="0"
     fit-margin-right="0"
     fit-margin-bottom="0"
     inkscape:zoom="0.68409091"
     inkscape:cx="274.4639"
     inkscape:cy="432.05861"
     inkscape:window-x="-8"
     inkscape:window-y="-8"
     inkscape:window-maximized="1"
     inkscape:current-layer="svg12" />
  <path
     id="path4"
     style="color:#000000;font-style:normal;font-variant:normal;font-weight:normal;font-stretch:normal;font-size:medium;line-height:normal;font-family:sans-serif;font-variant-ligatures:normal;font-variant-position:normal;font-variant-caps:normal;font-variant-numeric:normal;font-variant-alternates:normal;font-feature-settings:normal;text-indent:0;text-align:start;text-decoration:none;text-decoration-line:none;text-decoration-style:solid;text-decoration-color:#000000;letter-spacing:normal;word-spacing:normal;text-transform:none;writing-mode:lr-tb;direction:ltr;text-orientation:mixed;dominant-baseline:auto;baseline-shift:baseline;text-anchor:start;white-space:normal;shape-padding:0;clip-rule:nonzero;display:inline;overflow:visible;visibility:visible;opacity:1;isolation:auto;mix-blend-mode:normal;color-interpolation:sRGB;color-interpolation-filters:linearRGB;solid-color:#000000;solid-opacity:1;vector-effect:none;fill:#000000;fill-opacity:1;fill-rule:nonzero;stroke:none;stroke-width:21.93116379;stroke-linecap:square;stroke-linejoin:miter;stroke-miterlimit:4;stroke-dasharray:none;stroke-dashoffset:0;stroke-opacity:1;color-rendering:auto;image-rendering:auto;shape-rendering:auto;text-rendering:auto;enable-background:accumulate"
     d="M 0,0 V 10.964844 21.931641 263.17383 274.13867 285.10547 460.55469 H 350.89844 372.83008 526.34766 548.2793 877.24609 888.21289 899.17773 V 438.62305 372.83008 350.89844 197.38086 175.44922 0 H 285.10547 263.17383 21.931641 Z M 21.931641,21.931641 H 263.17383 V 175.44922 H 197.38086 175.44922 109.65625 V 109.65625 H 186.41406 197.38086 V 87.724609 H 186.41406 87.724609 V 197.38086 H 175.44922 V 274.13867 285.10547 H 197.38086 V 274.13867 197.38086 H 263.17383 285.10547 350.89844 V 263.17383 H 263.17383 V 350.89844 H 98.689453 87.724609 V 372.83008 H 98.689453 285.10547 V 285.10547 H 372.83008 V 175.44922 H 285.10547 V 21.931641 H 877.24609 V 175.44922 H 789.52148 V 274.13867 285.10547 H 811.45312 V 274.13867 197.38086 H 877.24609 V 350.89844 H 712.76367 701.79688 V 372.83008 H 712.76367 877.24609 V 438.62305 H 548.2793 V 372.83008 H 636.00391 V 285.10547 H 723.72852 V 109.65625 H 800.48828 811.45312 V 87.724609 H 800.48828 723.72852 701.79688 614.07227 V 186.41406 197.38086 H 636.00391 V 186.41406 109.65625 H 701.79688 V 263.17383 H 636.00391 614.07227 548.2793 V 175.44922 H 460.55469 V 87.724609 H 361.86328 350.89844 V 109.65625 H 361.86328 438.62305 V 197.38086 H 526.34766 V 285.10547 H 614.07227 V 350.89844 H 548.2793 526.34766 460.55469 V 274.13867 263.17383 H 438.62305 V 274.13867 372.83008 H 526.34766 V 438.62305 H 372.83008 V 361.86328 350.89844 H 350.89844 V 361.86328 438.62305 H 21.931641 V 285.10547 H 98.689453 109.65625 V 263.17383 H 98.689453 21.931641 Z" />
</svg>
