<?xml version="1.0" encoding="UTF-8" standalone="no"?>
<svg
   xmlns:dc="http://purl.org/dc/elements/1.1/"
   xmlns:cc="http://creativecommons.org/ns#"
   xmlns:rdf="http://www.w3.org/1999/02/22-rdf-syntax-ns#"
   xmlns:svg="http://www.w3.org/2000/svg"
   xmlns="http://www.w3.org/2000/svg"
   xmlns:sodipodi="http://sodipodi.sourceforge.net/DTD/sodipodi-0.dtd"
   xmlns:inkscape="http://www.inkscape.org/namespaces/inkscape"
   id="svg8"
   version="1.1"
   viewBox="0 0 238.12499 238.12501"
   height="900"
   width="900"
   sodipodi:docname="text.svg"
   inkscape:version="0.92.3 (2405546, 2018-03-11)">
  <sodipodi:namedview
     pagecolor="#ffffff"
     bordercolor="#666666"
     borderopacity="1"
     objecttolerance="10"
     gridtolerance="10"
     guidetolerance="10"
     inkscape:pageopacity="0"
     inkscape:pageshadow="2"
     inkscape:window-width="1920"
     inkscape:window-height="1017"
     id="namedview13"
     showgrid="false"
     inkscape:zoom="1.0488889"
     inkscape:cx="454.09455"
     inkscape:cy="308.76878"
     inkscape:window-x="-8"
     inkscape:window-y="-8"
     inkscape:window-maximized="1"
     inkscape:current-layer="svg8" />
  <defs
     id="defs2" />
  <metadata
     id="metadata5">
    <rdf:RDF>
      <cc:Work
         rdf:about="">
        <dc:format>image/svg+xml</dc:format>
        <dc:type
           rdf:resource="http://purl.org/dc/dcmitype/StillImage" />
        <dc:title />
      </cc:Work>
    </rdf:RDF>
  </metadata>
  <g
     transform="translate(0,-58.874983)"
     id="layer1">
    <path
       d="M 28.047407,171.72169 30.115738,171.28033 32.184069,170.83897 34.252399,170.39761 36.32073,169.95625 37.592883,173.03062 39.920837,175.2266 43.304592,176.54418 47.744147,176.98338 49.879547,176.87088 51.750997,176.53337 53.358496,175.97085 54.702046,175.18333 55.777318,174.22922 56.54537,173.16693 57.006201,171.99646 57.159811,170.71781 57.090578,169.76802 56.88288,168.85718 56.536716,167.98528 56.052086,167.15232 55.340286,166.36696 54.312611,165.67247 52.969062,165.06884 51.309637,164.55609 49.050916,163.96761 46.792195,163.37913 44.533474,162.79065 42.274753,162.20217 40.1069,161.57691 38.241941,160.91271 36.679875,160.20957 35.420703,159.46748 34.367066,158.61072 33.421605,157.59819 32.584321,156.42989 31.855212,155.10581 31.279714,153.68005 30.868645,152.20669 30.622003,150.68573 30.539789,149.11717 30.834029,146.10771 31.716747,143.41412 33.187945,141.0364 35.247621,138.97456 37.765965,137.2935 40.613165,136.09275 43.789221,135.37229 47.294133,135.13214 50.258164,135.29873 53.057766,135.7985 55.692941,136.63146 58.163687,137.7976 60.351012,139.2688 62.101305,141.01693 63.414565,143.04199 64.290793,145.34398 62.265733,145.84592 60.240672,146.34786 58.215612,146.84979 56.190552,147.35173 54.944361,145.00431 53.075074,143.32758 50.582692,142.32154 47.467215,141.98619 45.593602,142.09004 43.953649,142.40159 42.547357,142.92083 41.374726,143.64778 40.466045,144.53482 39.816987,145.53437 39.427553,146.64642 39.297741,147.87098 39.708811,149.74459 40.942021,151.31531 42.99737,152.58314 45.87486,153.54807 47.882612,154.05001 49.890364,154.55195 51.898116,155.05388 53.905868,155.55582 57.25717,156.5835 60.007012,157.83185 62.155393,159.30089 63.702314,160.9906 64.792731,162.82094 65.5716,164.74648 66.038921,166.76721 66.194695,168.88314 65.865839,172.17819 64.879271,175.10544 63.234992,177.6649 60.933,179.85655 58.124744,181.59819 54.927052,182.84221 51.339927,183.58863 47.363366,183.83743 43.957976,183.65353 40.768939,183.10183 37.796254,182.18234 35.039922,180.89504 32.629754,179.21831 30.660946,177.1305 29.133497,174.63163 Z"
       style="font-style:normal;font-variant:normal;font-weight:normal;font-stretch:normal;font-size:70.89441681px;line-height:0.75;font-family:'Franklin Gothic Medium';-inkscape-font-specification:'Franklin Gothic Medium, ';letter-spacing:-4.76618862px;word-spacing:-0.23830941px;fill:none;fill-opacity:1;stroke:#000000;stroke-width:0.83079392;stroke-opacity:1"
       id="path860" />
    <path
       d="M 101.23738,135.85908 V 143.44873 151.03838 158.62803 166.21768 L 101.15084,169.12113 100.89122,171.66977 100.45851,173.86358 99.852727,175.70258 98.998134,177.30791 97.819012,178.80075 96.315362,180.18107 94.487182,181.4489 92.403707,182.49388 90.099552,183.2403 87.574717,183.68815 84.829203,183.83743 82.066381,183.70762 79.558854,183.31819 77.306623,182.66913 75.309689,181.76045 73.587522,180.62676 72.124978,179.30268 70.922058,177.78822 69.978761,176.08336 69.266961,174.14267 68.758532,171.95535 68.453475,169.52138 68.351789,166.84077 V 159.09535 151.34993 143.6045 135.85908 H 70.523969 72.696149 74.868329 77.040509 V 143.44873 151.03838 158.62803 166.21768 L 77.202774,169.06704 77.689567,171.38418 78.50089,173.16909 79.636741,174.42177 81.004089,175.26987 82.475287,175.87566 84.050334,176.23913 85.72923,176.36029 87.620151,176.23048 89.312029,175.84104 90.804861,175.19198 92.09865,174.2833 93.143633,172.98735 93.890049,171.21109 94.337899,168.95454 94.487182,166.21768 V 158.62803 151.03838 143.44873 135.85908 H 96.174732 97.862281 99.54983 Z"
       style="font-style:normal;font-variant:normal;font-weight:normal;font-stretch:normal;font-size:70.89441681px;line-height:0.75;font-family:'Franklin Gothic Medium';-inkscape-font-specification:'Franklin Gothic Medium, ';letter-spacing:-4.76618862px;word-spacing:-0.23830941px;fill:none;fill-opacity:1;stroke:#000000;stroke-width:0.83079392;stroke-opacity:1"
       id="path862" />
    <path
       d="M 114.78328,183.11049 H 112.65437 110.52546 108.39655 106.26764 V 171.29764 159.48479 147.67193 135.85908 H 111.10529 115.94293 120.78058 125.61822 L 129.4866,136.12087 132.81843,136.90623 135.61371,138.21516 137.87243,140.04767 139.62921,142.21985 140.88406,144.58242 141.63696,147.13538 141.88793,149.87873 141.61749,152.96175 140.80617,155.73756 139.45396,158.20614 137.56088,160.3675 135.2524,162.12429 132.654,163.37913 129.7657,164.13204 126.58748,164.38301 H 123.63643 120.68538 117.73433 114.78328 V 169.06488 173.74675 178.42862 Z"
       style="font-style:normal;font-variant:normal;font-weight:normal;font-stretch:normal;font-size:70.89441681px;line-height:0.75;font-family:'Franklin Gothic Medium';-inkscape-font-specification:'Franklin Gothic Medium, ';letter-spacing:-4.76618862px;word-spacing:-0.23830941px;fill:none;fill-opacity:1;stroke:#000000;stroke-width:0.83079392;stroke-opacity:1"
       id="path864" />
    <path
       d="M 32.755239,236.2813 V 224.46845 212.6556 200.84275 189.0299 H 37.108253 41.461267 45.814282 50.167296 L 54.758298,189.45828 58.873324,190.74341 62.512374,192.8853 65.675449,195.88395 68.2349,199.49487 70.063079,203.50821 71.159987,207.92397 71.525623,212.74214 71.149169,217.55599 70.019809,221.95876 68.137541,225.95047 65.502367,229.5311 62.16621,232.48431 58.180996,234.59375 53.546723,235.85941 48.263393,236.2813 H 44.386355 40.509316 36.632278 Z"
       style="font-style:normal;font-variant:normal;font-weight:normal;font-stretch:normal;font-size:70.89441681px;line-height:0.75;font-family:'Franklin Gothic Medium';-inkscape-font-specification:'Franklin Gothic Medium, ';letter-spacing:-4.76618862px;word-spacing:-0.23830941px;fill:none;fill-opacity:1;stroke:#000000;stroke-width:0.83079392;stroke-opacity:1"
       id="path866" />
    <path
       d="M 111.69154,236.2813 H 102.58742 L 98.814232,225.03097 H 80.640615 L 76.936658,236.2813 H 69.667211 L 85.348447,189.0299 H 95.83722 Z"
       style="font-style:normal;font-variant:normal;font-weight:normal;font-stretch:normal;font-size:70.89441681px;line-height:0.75;font-family:'Franklin Gothic Medium';-inkscape-font-specification:'Franklin Gothic Medium, ';letter-spacing:-4.76618862px;word-spacing:-0.23830941px;fill:none;fill-opacity:1;stroke:#000000;stroke-width:0.83079392;stroke-opacity:1"
       id="path868"
       inkscape:connector-curvature="0"
       sodipodi:nodetypes="ccccccccc" />
    <path
       d="M 169.37336,189.0299 156.73837,236.2813 H 147.80733 L 138.39167,201.52642 129.84142,236.2813 H 121.08346 L 108.17154,189.0299 H 117.20642 L 126.34516,223.47323 134.8608,189.0299 H 143.48028 L 152.89595,223.47323 161.8616,189.0299 Z"
       style="font-style:normal;font-variant:normal;font-weight:normal;font-stretch:normal;font-size:70.89441681px;line-height:0.75;font-family:'Franklin Gothic Medium';-inkscape-font-specification:'Franklin Gothic Medium, ';letter-spacing:-4.76618862px;word-spacing:-0.23830941px;fill:none;fill-opacity:1;stroke:#000000;stroke-width:0.83079392;stroke-opacity:1"
       id="path870" />
    <path
       d="M 206.31995,212.11904 V 218.1596 224.20017 230.24074 236.2813 H 205.37665 204.43335 203.49006 202.54676 L 201.8977,234.68895 201.24864,233.09659 200.59959,231.50424 199.95053,229.91188 197.60743,233.01654 194.69749,235.23416 191.22071,236.56473 187.17708,237.00825 182.65315,236.54958 178.73933,235.17358 175.43562,232.88024 172.74203,229.66957 170.66721,225.85527 169.18519,221.75107 168.29598,217.35694 167.99958,212.67291 168.3306,207.76387 169.32366,203.24859 170.97875,199.12707 173.29589,195.39932 176.22531,192.29466 179.68262,190.07704 183.66783,188.74647 188.18095,188.30295 191.5885,188.56257 194.68018,189.34144 197.45599,190.63956 199.91592,192.45692 202.00588,194.64424 203.6718,197.08686 204.91366,199.78478 205.73147,202.738 203.87949,203.06686 202.02751,203.39571 200.17554,203.72456 198.32356,204.05342 196.92376,200.26725 194.80134,197.56284 191.95631,195.9402 188.38865,195.39932 185.99363,195.65462 183.82794,196.4205 181.89158,197.69698 180.18456,199.48405 178.8064,201.80119 177.82199,204.66786 177.23135,208.08407 177.03447,212.04981 177.73545,219.87961 179.8384,225.47233 183.34331,228.82796 188.25018,229.9465 190.33582,229.75827 192.23107,229.19359 193.93593,228.25246 195.4504,226.93487 196.70741,225.3079 197.60527,223.43861 198.14399,221.32701 198.32356,218.97309 H 195.8831 193.44264 191.00219 188.56173 V 217.25958 215.54607 213.83255 212.11904 H 193.00129 197.44084 201.8804 Z"
       style="font-style:normal;font-variant:normal;font-weight:normal;font-stretch:normal;font-size:70.89441681px;line-height:0.75;font-family:'Franklin Gothic Medium';-inkscape-font-specification:'Franklin Gothic Medium, ';letter-spacing:-4.76618862px;word-spacing:-0.23830941px;fill:none;fill-opacity:1;stroke:#000000;stroke-width:0.83079392;stroke-opacity:1"
       id="path872" />
  </g>
</svg>
