<?xml version="1.0" encoding="UTF-8" standalone="no"?>
<svg
   xmlns:dc="http://purl.org/dc/elements/1.1/"
   xmlns:cc="http://creativecommons.org/ns#"
   xmlns:rdf="http://www.w3.org/1999/02/22-rdf-syntax-ns#"
   xmlns:svg="http://www.w3.org/2000/svg"
   xmlns="http://www.w3.org/2000/svg"
   xmlns:sodipodi="http://sodipodi.sourceforge.net/DTD/sodipodi-0.dtd"
   xmlns:inkscape="http://www.inkscape.org/namespaces/inkscape"
   version="1.1"
   width="818.93805"
   height="831.57147"
   id="svg28"
   sodipodi:docname="superformula.svg"
   inkscape:version="0.92.3 (2405546, 2018-03-11)">
  <metadata
     id="metadata34">
    <rdf:RDF>
      <cc:Work
         rdf:about="">
        <dc:format>image/svg+xml</dc:format>
        <dc:type
           rdf:resource="http://purl.org/dc/dcmitype/StillImage" />
        <dc:title></dc:title>
      </cc:Work>
    </rdf:RDF>
  </metadata>
  <defs
     id="defs32" />
  <sodipodi:namedview
     pagecolor="#ffffff"
     bordercolor="#666666"
     borderopacity="1"
     objecttolerance="10"
     gridtolerance="10"
     guidetolerance="10"
     inkscape:pageopacity="0"
     inkscape:pageshadow="2"
     inkscape:window-width="1920"
     inkscape:window-height="1017"
     id="namedview30"
     showgrid="false"
     fit-margin-top="0"
     fit-margin-left="0"
     fit-margin-right="0"
     fit-margin-bottom="0"
     inkscape:zoom="0.41837151"
     inkscape:cx="98.684386"
     inkscape:cy="452.8937"
     inkscape:window-x="-8"
     inkscape:window-y="-8"
     inkscape:window-maximized="1"
     inkscape:current-layer="g26" />
  <g
     stroke-miterlimit="10"
     font-weight="none"
     font-size="none"
     text-anchor="none"
     style="font-family:none;mix-blend-mode:normal;fill:none;fill-rule:nonzero;stroke:none;stroke-width:1;stroke-linecap:butt;stroke-linejoin:miter;stroke-miterlimit:10;stroke-dasharray:none;stroke-dashoffset:0"
     id="g26"
     transform="translate(-550.61614,-53.214304)">
    <g
       id="g6"
       style="fill:none;stroke:#000000;stroke-opacity:0.6">
      <path
         d="M 1052.4418,469 1052.4644,469.69585 1052.5325,470.39299 1052.6462,471.09273 1052.8063,471.7964 1053.0136,472.50535 1053.2692,473.22099 1053.5745,473.94479 1053.9312,474.67829 1054.3413,475.42312 1054.8073,476.18102 1055.3318,476.95386 1055.9183,477.74367 1056.5705,478.55266 1057.2928,479.38327 1058.0904,480.23819 1058.9691,481.12042 1059.9359,482.03333 1060.9989,482.98075 1062.1674,483.96704 1063.4527,484.99723 1064.8679,486.07714 1066.4288,487.21361 1068.1544,488.41474 1070.0677,489.69021 1072.1969,491.05175 1074.5773,492.51378 1077.253,494.09426 1080.2808,495.81596 1083.7348,497.70833 1087.7135,499.81031 1092.3525,502.17483 1097.843,504.87617 1104.4667,508.02281 1112.6593,511.78131 1123.1399,516.42471 1137.2064,522.4423 1157.525,530.83223 1190.8472,544.10448 1263.0711,571.81591 1369.3721,613.3667 1261.2325,576.86744 1188.0932,551.67099 1154.0356,540.41903 1133.0778,533.78557 1118.4341,529.35352 1107.4208,526.17376 1098.729,523.78686 1091.6324,521.93968 1085.69,520.4798 1080.6165,519.30928 1076.2174,518.36198 1072.3552,517.59148 1068.929,516.96413 1065.8634,516.45492 1063.1002,516.04484 1060.5939,515.71919 1058.3084,515.46643 1056.2145,515.27737 1054.2882,515.14462 1052.5099,515.06219 1050.8632,515.02519 1049.334,515.02961 1047.9108,515.07213 1046.5833,515.15001 1045.3431,515.261 1044.1826,515.40325 1043.0954,515.57524 1042.0758,515.77574 1041.1188,516.00379 1040.2202,516.25863 1039.3761,516.53972 1038.5832,516.84668 1037.8385,517.1793 1037.1393,517.53752 1036.4835,517.92144 1035.869,518.33128 1035.2941,518.7674 1034.7571,519.2303 1034.2569,519.72062 1033.7923,520.23912 1033.3623,520.78672 1032.9663,521.36449 1032.6037,521.97365 1032.274,522.61561 1031.9771,523.29195 1031.7129,524.00446 1031.4816,524.75516 1031.2833,525.54633 1031.1187,526.38051 1030.9885,527.26059 1030.8935,528.18981 1030.8351,529.17182 1030.8147,530.21077 1030.8341,531.31135 1030.8956,532.47891 1031.0016,533.71957 1031.1554,535.04035 1031.3607,536.44937 1031.6219,537.95604 1031.9443,539.57138 1032.3343,541.30833 1032.7995,543.18226 1033.3493,545.21156 1033.9951,547.41845 1034.751,549.8301 1035.6347,552.48014 1036.6685,555.41078 1037.8813,558.67593 1039.3107,562.34571 1041.0075,566.51344 1043.0413,571.30662 1045.5109,576.90519 1048.5623,583.57329 1052.4222,591.71854 1057.4661,602.0124 1064.3737,615.66394 1074.5457,635.15152 1091.5407,666.73775 1129.0549,734.39057 1183.7779,834.54934 1124.3994,737.07843 1084.5674,670.7638 1065.7104,640.25254 1053.9197,621.69956 1045.5509,608.89167 1039.1581,599.3766 1034.0341,591.96116 1029.785,585.98449 1026.1713,581.04648 1023.0372,576.88861 1020.2762,573.33528 1017.8128,570.26243 1015.5915,567.57958 1013.5704,565.21895 1011.7172,563.12864 1010.0066,561.26818 1008.4183,559.60546 1006.9358,558.11467 1005.5455,556.77481 1004.2363,555.56861 1002.9986,554.48174 1001.8243,553.50221 1000.7067,552.61993 999.6398,551.82634 998.61839,551.11416 997.63797,550.47718 996.69455,549.91007 995.78459,549.40827 994.90494,548.96785 994.05275,548.58545 993.22546,548.2582 992.42073,547.98366 991.63644,547.75976 990.87062,547.58479 990.12147,547.45734 989.38729,547.3763 988.66651,547.34081 987.95764,547.35028 987.25927,547.40435 986.57006,547.50289 985.88871,547.64602 985.21397,547.83407 984.54462,548.06762 983.87945,548.34749 983.21727,548.67475 982.55688,549.05074 981.89709,549.47708 981.23667,549.95572 980.57437,550.48894 979.9089,551.0794 979.23889,551.7302 978.56292,552.44492 977.87947,553.22769 977.18691,554.08327 976.48348,555.01716 975.76724,556.03573 975.03608,557.14637 974.28763,558.35769 973.51924,559.67976 972.72789,561.12441 971.91013,562.70566 971.06197,564.44021 970.17873,566.34815 969.25488,568.45384 968.28376,570.78716 967.25729,573.38522 966.16546,576.29475 964.99569,579.57554 963.73184,583.3056 962.3527,587.58894 960.82964,592.568 959.12275,598.44417 957.17411,605.51366 954.89533,614.23441 952.14241,625.36212 948.65887,640.25989 943.92469,661.72666 936.64041,696.84732 921.89153,772.78603 899.43098,884.68738 916.59748,771.85255 928.71064,695.44909 933.87763,659.95509 936.77102,638.16373 938.5929,622.97296 939.8119,611.57478 940.65322,602.60057 941.24001,595.29095 941.64583,589.18537 941.91756,583.98567 942.08658,579.48895 942.1747,575.55158 942.19758,572.06856 942.16671,568.96107 942.09073,566.16862 941.97622,563.64387 941.82827,561.3492 941.65085,559.25424 941.44709,557.33421 941.21947,555.56863 940.96994,553.94045 940.70006,552.43531 940.41104,551.04106 940.10384,549.74732 939.77917,548.54521 939.43757,547.42705 939.0794,546.3862 938.70489,545.41689 938.31413,544.51408 937.90712,543.67337 937.48373,542.89091 937.04375,542.16333 936.58687,541.48768 936.11269,540.86139 935.62073,540.28221 935.11041,539.74821 934.58107,539.25772 934.03196,538.80932 933.46223,538.40184 932.87092,538.03431 932.25698,537.70599 931.61922,537.41633 930.95634,537.16499 930.26689,536.95182 929.54927,536.77687 928.80171,536.6404 928.02223,536.54289 927.20866,536.48504 926.35857,536.46779 925.46924,536.49235 924.53766,536.56022 923.56042,536.67322 922.53371,536.83354 921.45322,537.04378 920.31406,537.30702 919.11067,537.6269 917.83666,538.00772 916.48469,538.45455 915.04626,538.9734 913.51145,539.5714 911.86861,540.25706 910.10394,541.04062 908.20095,541.93445 906.13973,542.95366 903.89598,544.11686 901.43965,545.44729 898.73305,546.9743 895.7281,548.73562 892.3623,550.78062 888.55254,553.17535 884.18533,556.01053 879.10065,559.41477 873.06373,563.57775 865.7125,568.79346 856.45089,575.54824 844.20624,584.72142 826.78107,598.12285 798.62586,620.3446 738.51511,669.03663 649.38053,740.32067 735.05966,664.91859 793.45007,614.17634 820.22332,590.30764 836.447,575.47433 847.60708,565.00861 855.8675,557.06066 862.2805,550.72681 867.42854,545.5045 871.66401,541.08821 875.21448,537.27967 878.23439,533.94363 880.83279,530.98407 883.08916,528.33062 885.06297,525.9303 886.79972,523.74232 888.33488,521.73465 889.69653,519.88173 890.90723,518.16286 891.98532,516.56106 892.94584,515.06224 893.80127,513.65459 894.56202,512.32811 895.23683,511.07427 895.8331,509.88574 896.35709,508.75618 896.81415,507.68004 897.20882,506.65248 897.54499,505.66921 897.82597,504.72644 898.05458,503.82079 898.2332,502.94924 898.36383,502.10907 898.44813,501.29781 898.48746,500.51324 898.48288,499.75334 898.4352,499.01624 898.34499,498.30025 898.21257,497.6038 898.03806,496.92543 897.82134,496.2638 897.56207,495.61766 897.25971,494.98583 896.91348,494.3672 896.52236,493.76073 896.08509,493.16543 895.60014,492.58037 895.0657,492.00464 894.47965,491.43737 893.83953,490.87773 893.14248,490.3249 892.38522,489.77808 891.56398,489.23649 890.67443,488.69935 889.71159,488.16588 888.66974,487.6353 887.54227,487.10682 886.32153,486.57963 884.99864,486.05289 883.56323,485.52574 882.00311,484.99727 880.30388,484.46652 878.4484,483.93245 876.41608,483.39394 874.18196,482.84977 871.71545,482.29858 868.97861,481.73885 865.92369,481.16884 862.48961,480.58655 858.59675,479.98962 854.139,479.37522 848.97111,478.73991 842.88781,478.07934 835.58735,477.38791 826.60338,476.6581 815.16669,475.87931 799.89034,475.03566 777.92761,474.10106 742.07561,473.02609 664.72947,471.6879 550.62792,469.00004 664.72947,466.31218 742.07561,464.97399 777.92761,463.89902 799.89034,462.96442 815.16669,462.12077 826.60338,461.34198 835.58735,460.61217 842.88781,459.92074 848.97111,459.26017 854.139,458.62486 858.59675,458.01046 862.48961,457.41353 865.92369,456.83124 868.97861,456.26123 871.71545,455.7015 874.18196,455.15031 876.41608,454.60614 878.4484,454.06763 880.30388,453.53356 882.00311,453.00281 883.56323,452.47434 884.99864,451.94719 886.32153,451.42045 887.54227,450.89326 888.66974,450.36478 889.71159,449.8342 890.67443,449.30073 891.56398,448.76359 892.38522,448.222 893.14248,447.67518 893.83953,447.12235 894.47965,446.56271 895.0657,445.99544 895.60014,445.41971 896.08509,444.83465 896.52236,444.23935 896.91348,443.63288 897.25971,443.01425 897.56207,442.38242 897.82134,441.73628 898.03806,441.07465 898.21257,440.39628 898.34499,439.69983 898.4352,438.98384 898.48288,438.24674 898.48746,437.48684 898.44813,436.70227 898.36383,435.89101 898.2332,435.05084 898.05458,434.17929 897.82597,433.27364 897.54499,432.33087 897.20882,431.3476 896.81415,430.32004 896.35709,429.2439 895.8331,428.11434 895.23683,426.92581 894.56202,425.67197 893.80127,424.34549 892.94584,422.93784 891.98532,421.43902 890.90723,419.83722 889.69653,418.11835 888.33488,416.26543 886.79972,414.25776 885.06297,412.06978 883.08916,409.66946 880.83279,407.01601 878.23439,404.05645 875.21448,400.72041 871.66401,396.91187 867.42854,392.49558 862.2805,387.27327 855.8675,380.93942 847.60708,372.99147 836.447,362.52575 820.22332,347.69244 793.45007,323.82374 735.05966,273.08149 649.38053,197.67941 738.51511,268.96345 798.62586,317.65548 826.78107,339.87723 844.20624,353.27866 856.45089,362.45184 865.7125,369.20662 873.06373,374.42233 879.10065,378.58531 884.18533,381.98955 888.55254,384.82473 892.3623,387.21946 895.7281,389.26446 898.73305,391.02578 901.43965,392.55279 903.89598,393.88322 906.13973,395.04642 908.20095,396.06563 910.10394,396.95946 911.86861,397.74302 913.51145,398.42868 915.04626,399.02668 916.48469,399.54553 917.83666,399.99236 919.11067,400.37318 920.31406,400.69306 921.45322,400.9563 922.53371,401.16654 923.56042,401.32686 924.53766,401.43986 925.46924,401.50773 926.35857,401.53229 927.20866,401.51504 928.02223,401.45719 928.80171,401.35968 929.54927,401.22321 930.26689,401.04826 930.95634,400.83509 931.61922,400.58375 932.25698,400.29409 932.87092,399.96577 933.46223,399.59824 934.03196,399.19076 934.58107,398.74236 935.11041,398.25187 935.62073,397.71787 936.11269,397.13869 936.58687,396.5124 937.04375,395.83675 937.48373,395.10917 937.90712,394.32671 938.31413,393.486 938.70489,392.58319 939.0794,391.61388 939.43757,390.57303 939.77917,389.45487 940.10384,388.25276 940.41104,386.95902 940.70006,385.56477 940.96994,384.05963 941.21947,382.43145 941.44709,380.66587 941.65085,378.74584 941.82827,376.65088 941.97622,374.35621 942.09073,371.83146 942.16671,369.03901 942.19758,365.93152 942.1747,362.4485 942.08658,358.51113 941.91756,354.01441 941.64583,348.81471 941.24001,342.70913 940.65322,335.39951 939.8119,326.4253 938.5929,315.02712 936.77102,299.83635 933.87763,278.04499 928.71064,242.55099 916.59748,166.14753 899.43098,53.3127 921.89153,165.21405 936.64041,241.15276 943.92469,276.27342 948.65887,297.74019 952.14241,312.63796 954.89533,323.76567 957.17411,332.48642 959.12275,339.55591 960.82964,345.43208 962.3527,350.41114 963.73184,354.69448 964.99569,358.42454 966.16546,361.70533 967.25729,364.61486 968.28376,367.21292 969.25488,369.54624 970.17873,371.65193 971.06197,373.55987 971.91013,375.29442 972.72789,376.87567 973.51924,378.32032 974.28763,379.64239 975.03608,380.85371 975.76724,381.96435 976.48348,382.98292 977.18691,383.91681 977.87947,384.77239 978.56292,385.55516 979.23889,386.26988 979.9089,386.92068 980.57437,387.51114 981.23667,388.04436 981.89709,388.523 982.55688,388.94934 983.21727,389.32533 983.87945,389.65259 984.54462,389.93246 985.21397,390.16601 985.88871,390.35406 986.57006,390.49719 987.25927,390.59573 987.95764,390.6498 988.66651,390.65927 989.38729,390.62378 990.12147,390.54274 990.87062,390.41529 991.63644,390.24032 992.42073,390.01642 993.22546,389.74188 994.05275,389.41463 994.90494,389.03223 995.78459,388.59181 996.69455,388.09001 997.63797,387.5229 998.61839,386.88592 999.6398,386.17374 1000.7067,385.38015 1001.8243,384.49787 1002.9986,383.51834 1004.2363,382.43147 1005.5455,381.22527 1006.9358,379.88541 1008.4183,378.39462 1010.0066,376.7319 1011.7172,374.87144 1013.5704,372.78113 1015.5915,370.4205 1017.8128,367.73765 1020.2762,364.6648 1023.0372,361.11147 1026.1713,356.9536 1029.785,352.01559 1034.0341,346.03892 1039.1581,338.62348 1045.5509,329.10841 1053.9197,316.30052 1065.7104,297.74754 1084.5674,267.23628 1124.3994,200.92165 1183.7779,103.45074 1129.0549,203.60951 1091.5407,271.26233 1074.5457,302.84856 1064.3737,322.33614 1057.4661,335.98768 1052.4222,346.28154 1048.5623,354.42679 1045.5109,361.09489 1043.0413,366.69346 1041.0075,371.48664 1039.3107,375.65437 1037.8813,379.32415 1036.6685,382.5893 1035.6347,385.51994 1034.751,388.16998 1033.9951,390.58163 1033.3493,392.78852 1032.7995,394.81782 1032.3343,396.69175 1031.9443,398.4287 1031.6219,400.04404 1031.3607,401.55071 1031.1554,402.95973 1031.0016,404.28051 1030.8956,405.52117 1030.8341,406.68873 1030.8147,407.78931 1030.8351,408.82826 1030.8935,409.81027 1030.9885,410.73949 1031.1187,411.61957 1031.2833,412.45375 1031.4816,413.24492 1031.7129,413.99562 1031.9771,414.70813 1032.274,415.38447 1032.6037,416.02643 1032.9663,416.63559 1033.3623,417.21336 1033.7923,417.76096 1034.2569,418.27946 1034.7571,418.76978 1035.2941,419.23268 1035.869,419.6688 1036.4835,420.07864 1037.1393,420.46256 1037.8385,420.82078 1038.5832,421.1534 1039.3761,421.46036 1040.2202,421.74145 1041.1188,421.99629 1042.0758,422.22434 1043.0954,422.42484 1044.1826,422.59683 1045.3431,422.73908 1046.5833,422.85007 1047.9108,422.92795 1049.334,422.97047 1050.8632,422.97489 1052.5099,422.93789 1054.2882,422.85546 1056.2145,422.72271 1058.3084,422.53365 1060.5939,422.28089 1063.1002,421.95524 1065.8634,421.54516 1068.929,421.03595 1072.3552,420.4086 1076.2174,419.6381 1080.6165,418.6908 1085.69,417.52028 1091.6324,416.0604 1098.729,414.21322 1107.4208,411.82632 1118.4341,408.64656 1133.0778,404.21451 1154.0356,397.58105 1188.0932,386.32909 1261.2325,361.13264 1369.3721,324.63338 1263.0711,366.18417 1190.8472,393.8956 1157.525,407.16785 1137.2064,415.55778 1123.1399,421.57537 1112.6593,426.21877 1104.4667,429.97727 1097.843,433.12391 1092.3525,435.82525 1087.7135,438.18977 1083.7348,440.29175 1080.2808,442.18412 1077.253,443.90582 1074.5773,445.4863 1072.1969,446.94833 1070.0677,448.30987 1068.1544,449.58534 1066.4288,450.78647 1064.8679,451.92294 1063.4527,453.00285 1062.1674,454.03304 1060.9989,455.01933 1059.9359,455.96675 1058.9691,456.87966 1058.0904,457.76189 1057.2928,458.61681 1056.5705,459.44742 1055.9183,460.25641 1055.3318,461.04622 1054.8073,461.81906 1054.3413,462.57696 1053.9312,463.32179 1053.5745,464.05529 1053.2692,464.77909 1053.0136,465.49473 1052.8063,466.20368 1052.6462,466.90735 1052.5325,467.60709 1052.4644,468.30423 1052.4418,469.00008"
         id="path4"
         inkscape:connector-curvature="0" />
    </g>
    <g
       font-weight="normal"
       font-size="12"
       id="g24"
       style="font-weight:normal;font-size:12px;font-family:sans-serif;text-anchor:start;fill:none;stroke:none" />
  </g>
</svg>
